<svg viewBox="0 0 22 16.8173" fill="none" xmlns="http://www.w3.org/2000/svg">
  <path d="M22 13.8691V16.812C21.8876 16.8152 21.7774 16.8173 21.6671 16.8173C19.4368 16.8173 17.5215 16.1217 15.9495 14.7433C14.2946 16.1947 12.2585 16.8881 9.87589 16.811V13.868C11.9477 13.9589 13.5637 13.2496 14.8165 11.702L15.9495 10.3024L17.0815 11.702C18.33 13.2443 19.9387 13.9536 22 13.8691Z" fill="#1A202C"/>
  <path d="M22 3.56664V6.50959C21.8876 6.51276 21.7774 6.51487 21.6671 6.51487C19.4368 6.51487 17.5215 5.8193 15.9495 4.44085C14.2946 5.89224 12.2585 6.5857 9.87589 6.50853V3.56558C11.9477 3.65649 13.5637 2.94718 14.8165 1.39959L15.9495 0L17.0815 1.39959C18.33 2.94189 19.9387 3.6512 22 3.56664Z" fill="#1A202C"/>
  <path d="M12.1241 8.50326V11.4462C12.0118 11.4494 11.9015 11.4515 11.7912 11.4515C9.56089 11.4515 7.64556 11.1788 6.07361 9.80031C4.4187 11.2517 2.38261 11.5223 0 11.4452V8.5022C2.07179 8.59311 3.68785 8.30664 4.94058 6.75905L6.07361 5.35946L7.20558 6.75905C8.45412 8.30136 10.0628 8.58783 12.1241 8.50326Z" fill="#1A202C"/>
</svg>
